<svg width="50" height="60" viewBox="0 0 50 60" fill="none" xmlns="http://www.w3.org/2000/svg">
<g clip-path="url(#clip0_353_2207)">
<path d="M35.2582 0H24.3579V12.5407H35.2582V0Z" fill="#2A3647"/>
<path d="M24.3581 22.7399H35.2584V40.4266C35.3082 44.6825 34.097 48.8571 31.7787 52.4198C29.4896 55.8813 25.0708 59.9998 16.8955 59.9998C7.99079 59.9998 2.80055 55.7887 0 53.481L6.8756 44.9998C9.60907 47.2317 12.2419 49.0678 16.9375 49.0678C20.4926 49.0678 21.9097 47.6191 22.7398 46.3558C23.8683 44.6011 24.452 42.549 24.4168 40.4603L24.3581 22.7399Z" fill="#2A3647"/>
<path d="M18.7987 14.8232H7.89836V25.772H18.7987V14.8232Z" fill="#29ABE2"/>
<path d="M40.969 54.8623C40.969 57.1953 39.7867 58.4502 38.1349 58.4502C36.4831 58.4502 35.4014 56.9594 35.4014 54.9802C35.4014 53.001 36.5166 51.4345 38.2271 51.4345C39.9377 51.4345 40.969 52.9757 40.969 54.8623ZM36.6676 54.9549C36.6676 56.3615 37.2293 57.3974 38.1936 57.3974C39.1579 57.3974 39.7029 56.3025 39.7029 54.8707C39.7029 53.6158 39.1998 52.4367 38.1936 52.4367C37.1874 52.4367 36.6676 53.5737 36.6676 54.9549Z" fill="#2A3647"/>
<path d="M43.1319 51.5357V58.3408H41.9245V51.5357H43.1319Z" fill="#2A3647"/>
<path d="M44.4398 58.3408V51.5357H45.7814L47.2236 54.3403C47.5949 55.0736 47.9252 55.8272 48.213 56.5974C48.1375 55.7552 48.104 54.7867 48.104 53.7086V51.5357H49.2108V58.3408H47.9615L46.5025 55.4773C46.1162 54.7251 45.7719 53.9518 45.4711 53.1612C45.4711 54.0034 45.5298 54.9551 45.5298 56.1258V58.3324L44.4398 58.3408Z" fill="#2A3647"/>
</g>
<defs>
<clipPath id="clip0_353_2207">
<rect width="49.0167" height="59.7631" fill="#2A3647" transform="scale(1.00396)"/>
</clipPath>
</defs>
</svg>
